<svg width="20" height="20" viewBox="0 0 20 20" fill="none" xmlns="http://www.w3.org/2000/svg">
<path fill-rule="evenodd" clip-rule="evenodd" d="M19.9149 19.0372H15.7052V12.9499C15.7052 11.3566 15.0466 10.2689 13.5986 10.2689C12.491 10.2689 11.875 11.0029 11.5883 11.7103C11.4808 11.9642 11.4976 12.3179 11.4976 12.6717V19.0372H7.32702C7.32702 19.0372 7.38078 8.2542 7.32702 7.27403H11.4976V9.12017C11.744 8.31296 13.0767 7.16092 15.2035 7.16092C17.8419 7.16092 19.9149 8.85295 19.9149 12.4964V19.0372ZM3.10939 5.80266H3.08251C1.73861 5.80266 0.86731 4.90342 0.86731 3.76358C0.86731 2.60156 1.76436 1.72119 3.13515 1.72119C4.50481 1.72119 5.34699 2.59936 5.37387 3.76027C5.37387 4.90011 4.50481 5.80266 3.10939 5.80266ZM1.34774 7.27403H5.0603V19.0372H1.34774V7.27403Z" fill="#191919"/>
</svg>
